<?xml version="1.0" encoding="UTF-8" standalone="no"?>
<!-- Created with Inkscape (http://www.inkscape.org/) -->

<svg
   xmlns:osb="http://www.openswatchbook.org/uri/2009/osb"
   xmlns:dc="http://purl.org/dc/elements/1.1/"
   xmlns:cc="http://creativecommons.org/ns#"
   xmlns:rdf="http://www.w3.org/1999/02/22-rdf-syntax-ns#"
   xmlns:svg="http://www.w3.org/2000/svg"
   xmlns="http://www.w3.org/2000/svg"
   xmlns:sodipodi="http://sodipodi.sourceforge.net/DTD/sodipodi-0.dtd"
   xmlns:inkscape="http://www.inkscape.org/namespaces/inkscape"
   version="1.1"
   width="53.814125"
   height="86.501999"
   id="svg2"
   xml:space="preserve"
   inkscape:version="0.48.3.1 r9886"
   sodipodi:docname="microphone.svg"><sodipodi:namedview
     pagecolor="#ffffff"
     bordercolor="#666666"
     borderopacity="1"
     objecttolerance="10"
     gridtolerance="10"
     guidetolerance="10"
     inkscape:pageopacity="0"
     inkscape:pageshadow="2"
     inkscape:window-width="1364"
     inkscape:window-height="748"
     id="namedview3065"
     showgrid="false"
     inkscape:zoom="6.5778827"
     inkscape:cx="-1.7495751"
     inkscape:cy="43.250999"
     inkscape:window-x="0"
     inkscape:window-y="18"
     inkscape:window-maximized="1"
     inkscape:current-layer="svg2" /><metadata
     id="metadata8"><rdf:RDF><cc:Work
         rdf:about=""><dc:format>image/svg+xml</dc:format><dc:type
           rdf:resource="http://purl.org/dc/dcmitype/StillImage" /><dc:title></dc:title></cc:Work></rdf:RDF></metadata><defs
     id="defs6"><linearGradient
       id="linearGradient3845"
       osb:paint="solid"><stop
         style="stop-color:#000000;stop-opacity:1;"
         offset="0"
         id="stop3847" /></linearGradient><linearGradient
       id="linearGradient3839"
       osb:paint="solid"><stop
         style="stop-color:#000000;stop-opacity:1;"
         offset="0"
         id="stop3841" /></linearGradient><clipPath
       id="clipPath16"><path
         d="m 0,69.202 43.051,0 L 43.051,0 0,0 0,69.202 z"
         inkscape:connector-curvature="0"
         id="path18" /></clipPath></defs><g
     transform="matrix(1.25,0,0,-1.25,0,86.502)"
     id="g10"
     style="fill:#ffffff;fill-opacity:1"><g
       id="g12"
       style="fill:#ffffff;fill-opacity:1"><g
         clip-path="url(#clipPath16)"
         id="g14"
         style="fill:#ffffff;fill-opacity:1"><g
           transform="translate(37.5711,45.5143)"
           id="g20"
           style="fill:#ffffff;fill-opacity:1"><path
             d="m 0,0 c -0.99,0 -1.792,-0.802 -1.792,-1.792 l 0,-10.64 c 0,-8.026 -6.394,-14.554 -14.253,-14.554 -7.86,0 -14.251,6.528 -14.251,14.554 l 0,10.64 c 0,0.99 -0.803,1.792 -1.792,1.792 l -3.691,0 c -0.99,0 -1.792,-0.802 -1.792,-1.792 l 0,-10.64 c 0,-10.777 7.748,-19.725 17.882,-21.494 l 0,-5.188 -6.98,-1.152 c -0.692,-0.114 -1.199,-0.712 -1.199,-1.413 l 0,-2.403 c 0,-0.791 0.641,-1.432 1.432,-1.432 l 20.784,0 c 0.791,0 1.432,0.641 1.432,1.432 l 0,2.403 c 0,0.701 -0.508,1.299 -1.199,1.413 l -6.99,1.152 0,5.188 c 10.142,1.769 17.889,10.717 17.889,21.494 l 0,10.64 C 5.48,-0.802 4.678,0 3.688,0 L 0,0 z"
             inkscape:connector-curvature="0"
             id="path22"
             style="fill:#ffffff;fill-opacity:1;fill-rule:nonzero;stroke:none" /></g><g
           transform="translate(21.5257,21.8269)"
           id="g24"
           style="fill:#ffffff;fill-opacity:1"><path
             d="m 0,0 c 6.275,0 11.405,5.264 11.405,11.697 l 0,23.98 c 0,6.434 -5.13,11.698 -11.405,11.698 -6.275,0 -11.405,-5.264 -11.405,-11.698 l 0,-23.98 C -11.405,5.264 -6.275,0 0,0"
             inkscape:connector-curvature="0"
             id="path26"
             style="fill:#ffffff;fill-opacity:1;fill-rule:nonzero;stroke:none" /></g></g></g></g><path
     style="fill:#ffffff;fill-opacity:1;stroke:#ffffff;stroke-opacity:1;opacity:0"
     d="M 25.189185,59.013021 C 23.92255,58.85627 21.838286,58.236078 20.780471,57.701167 17.193389,55.887269 14.601754,52.737833 13.305597,48.617468 l -0.430405,-1.368221 0,-17.634854 c 0,-19.496894 -0.06935,-18.025755 0.970167,-20.5801498 1.478144,-3.6322236 4.644305,-6.726562 8.258298,-8.07096491 2.045351,-0.76086899 4.301517,-1.03217282 6.362561,-0.76509774 1.858277,0.24080011 3.093079,0.62621878 4.770515,1.48902135 4.012703,2.0639655 6.72209,5.7736119 7.611343,10.4213211 0.338496,1.769161 0.340191,33.011468 0.0019,34.951397 -1.111713,6.375037 -6.202269,11.264852 -12.452907,11.96184 -1.604651,0.178928 -1.693378,0.178686 -3.207881,-0.0087 l -3e-6,3e-6 z"
     id="path3067"
     inkscape:connector-curvature="0" /><path
     style="fill:#ffffff;fill-opacity:1"
     d="m 13.08521,86.167075 c -0.681366,-0.370282 -0.894129,-1.066608 -0.894129,-2.926294 0,-0.915538 0.07446,-1.878217 0.165471,-2.139286 0.295188,-0.846777 0.78739,-1.005296 5.573458,-1.794995 l 4.446719,-0.733708 0,-3.303914 0,-3.303914 -0.570092,-0.143487 C 21.493086,71.74256 20.860284,71.59361 20.40041,71.490482 19.940535,71.387353 18.987417,71.100896 18.282368,70.853913 10.029509,67.962883 3.6261023,61.177589 1.1710711,52.722132 0.21613909,49.433218 0.15841045,48.74943 0.08012759,39.800041 L 0.00831825,31.590712 0.36077087,30.91785 C 0.95000148,29.792959 1.3036358,29.69031 4.587479,29.690973 c 3.1441944,6.36e-4 3.4946632,0.0945 4.1078574,1.100221 0.2901725,0.475921 0.3021138,0.779114 0.3026597,7.684624 5.625e-4,7.150084 0.1071025,9.282297 0.5523099,11.053798 1.744878,6.942946 7.00362,12.04147 13.966608,13.541086 2.533142,0.545562 6.366342,0.300969 8.969451,-0.57233 5.198637,-1.744056 9.609273,-6.182854 11.300353,-11.372498 0.851182,-2.612143 0.831931,-2.37508 0.925852,-11.401845 0.0985,-9.466799 0.04507,-9.046479 1.234978,-9.715246 0.517945,-0.2911 0.805668,-0.318329 3.358234,-0.31781 3.118621,6.36e-4 3.472472,0.09594 4.084787,1.100221 0.29134,0.477836 0.302113,0.780906 0.30266,8.515768 6.08e-4,8.280615 -0.05609,9.276566 -0.686298,12.060021 -2.087557,9.220162 -9.251041,16.958907 -18.267157,19.734095 -0.654079,0.201328 -1.565497,0.447194 -2.025372,0.54637 -0.459874,0.09918 -0.955854,0.213162 -1.102178,0.253302 -0.242954,0.06665 -0.266043,0.359149 -0.266043,3.370257 l 0,3.297273 4.420501,0.71849 c 2.431277,0.395168 4.597176,0.805192 4.81311,0.911164 0.803109,0.394134 1.015818,0.905872 1.078317,2.594224 0.0694,1.874752 -0.118824,2.682079 -0.748913,3.212264 l -0.464867,0.39116 -13.48052,-0.0061 c -11.362351,-0.0051 -13.543068,-0.04008 -13.878599,-0.22242 l 0,-6e-6 z"
     id="path3069"
     inkscape:connector-curvature="0" /></svg>